<svg xmlns="http://www.w3.org/2000/svg" xmlns:xlink="http://www.w3.org/1999/xlink" width="500" zoomAndPan="magnify" viewBox="0 0 375 374.999991" height="500" preserveAspectRatio="xMidYMid meet" version="1.0"><defs><clipPath id="f678179902"><path d="M 0 0 L 374.980469 0 L 374.980469 374.980469 L 0 374.980469 Z M 0 0 " clip-rule="nonzero"/></clipPath></defs><g clip-path="url(#f678179902)"><path fill="#15b7b9" d="M 272.714844 204.535156 L 238.625 204.535156 L 238.625 170.445312 L 272.714844 170.445312 Z M 170.445312 204.535156 L 136.359375 204.535156 L 136.359375 170.445312 L 170.445312 170.445312 Z M 340.890625 68.175781 L 340.890625 136.355469 L 306.804688 136.355469 L 306.804688 102.265625 L 272.714844 102.265625 L 272.714844 68.175781 L 204.535156 68.175781 L 204.535156 34.089844 L 238.625 34.089844 L 238.625 0 L 136.359375 0 L 136.359375 34.089844 L 170.445312 34.089844 L 170.445312 68.175781 L 102.269531 68.175781 L 102.269531 102.265625 L 68.179688 102.265625 L 68.179688 136.355469 L 34.089844 136.355469 L 34.089844 68.175781 L 0 68.175781 L 0 170.445312 L 68.179688 170.445312 L 68.179688 204.535156 L 0 204.535156 L 0 306.800781 L 34.089844 306.800781 L 34.089844 238.625 L 68.179688 238.625 L 68.179688 272.714844 L 102.269531 272.714844 L 102.269531 374.980469 L 170.445312 374.980469 L 170.445312 340.890625 L 136.359375 340.890625 L 136.359375 306.800781 L 238.625 306.800781 L 238.625 340.890625 L 204.535156 340.890625 L 204.535156 374.980469 L 272.714844 374.980469 L 272.714844 272.714844 L 306.804688 272.714844 L 306.804688 238.625 L 340.890625 238.625 L 340.890625 306.800781 L 374.984375 306.800781 L 374.984375 204.535156 L 306.804688 204.535156 L 306.804688 170.445312 L 374.984375 170.445312 L 374.984375 68.175781 L 340.890625 68.175781 " fill-opacity="1" fill-rule="nonzero"/></g></svg>